/* XPM */
static char * biobank_launcher_xpm[] = {
"48 48 518 2",
"  	c None",
". 	c #DB3535",
"+ 	c #DA3434",
"@ 	c #D93333",
"# 	c #D83131",
"$ 	c #D93232",
"% 	c #D52F2F",
"& 	c #D63030",
"* 	c #D52E2E",
"= 	c #D32D2D",
"- 	c #D42D2D",
"; 	c #D32C2C",
"> 	c #D12B2B",
", 	c #D12A2A",
"' 	c #CF2828",
") 	c #D02929",
"! 	c #CE2727",
"~ 	c #CC2626",
"{ 	c #CB2425",
"] 	c #C92424",
"^ 	c #CA2222",
"/ 	c #C82122",
"( 	c #C61F1F",
"_ 	c #C51F1F",
": 	c #C41D1E",
"< 	c #C41D1D",
"[ 	c #C31C1C",
"} 	c #C21B1B",
"| 	c #C11B1B",
"1 	c #BF1919",
"2 	c #BF1719",
"3 	c #BD1616",
"4 	c #BE1617",
"5 	c #BC1415",
"6 	c #BD1516",
"7 	c #BA1314",
"8 	c #BA1313",
"9 	c #B91213",
"0 	c #B81112",
"a 	c #B71010",
"b 	c #D02B2B",
"c 	c #D02A2A",
"d 	c #D42C2C",
"e 	c #D62C2C",
"f 	c #D42929",
"g 	c #D12929",
"h 	c #BE1719",
"i 	c #BD1617",
"j 	c #D72E2E",
"k 	c #CB2B2B",
"l 	c #921D1D",
"m 	c #6E1414",
"n 	c #6C1414",
"o 	c #8D1818",
"p 	c #C12626",
"q 	c #D32929",
"r 	c #C01717",
"s 	c #C41617",
"t 	c #C31516",
"u 	c #BF1516",
"v 	c #D62E2E",
"w 	c #AC2425",
"x 	c #400E0E",
"y 	c #000000",
"z 	c #2F0909",
"A 	c #971C1C",
"B 	c #D02727",
"C 	c #C21A1A",
"D 	c #BA1719",
"E 	c #8F1010",
"F 	c #700E0E",
"G 	c #6D0E0E",
"H 	c #9D1011",
"I 	c #BB1314",
"J 	c #BB1313",
"K 	c #D82F2F",
"L 	c #AC2525",
"M 	c #130404",
"N 	c #0A0101",
"O 	c #921A1A",
"P 	c #C01B1B",
"Q 	c #C21919",
"R 	c #A81717",
"S 	c #2C0505",
"T 	c #070000",
"U 	c #030000",
"V 	c #020000",
"W 	c #050000",
"X 	c #58090A",
"Y 	c #B81212",
"Z 	c #BB2929",
"` 	c #0C0101",
" .	c #090102",
"..	c #A71F1F",
"+.	c #CE2526",
"@.	c #C31A1A",
"#.	c #8A1112",
"$.	c #080101",
"%.	c #500808",
"&.	c #BF1313",
"*.	c #DA3030",
"=.	c #380A0A",
"-.	c #1B0404",
";.	c #BF2122",
">.	c #C51C1C",
",.	c #951414",
"'.	c #060000",
").	c #5D0A0B",
"!.	c #BB1112",
"~.	c #DA3131",
"{.	c #73191A",
"].	c #190405",
"^.	c #160404",
"/.	c #3A0B0B",
"(.	c #3E0D0D",
"_.	c #631313",
":.	c #D22626",
"<.	c #C92423",
"[.	c #A41515",
"}.	c #090101",
"|.	c #9E0E0F",
"1.	c #B9292A",
"2.	c #0B0202",
"3.	c #3E0E0E",
"4.	c #6A1515",
"5.	c #350A0A",
"6.	c #741818",
"7.	c #CF2B2B",
"8.	c #601314",
"9.	c #040000",
"0.	c #000001",
"a.	c #AF1D1D",
"b.	c #CB2424",
"c.	c #2B0505",
"d.	c #100303",
"e.	c #2E0606",
"f.	c #3B0505",
"g.	c #4C0506",
"h.	c #BD1112",
"i.	c #DF3333",
"j.	c #541212",
"k.	c #370B0B",
"l.	c #210707",
"m.	c #4E1212",
"n.	c #721717",
"o.	c #340A0A",
"p.	c #711717",
"q.	c #D22B2B",
"r.	c #851B1B",
"s.	c #6D1313",
"t.	c #0E0303",
"u.	c #370808",
"v.	c #CB2323",
"w.	c #C71D1D",
"x.	c #580D0D",
"y.	c #3B0808",
"z.	c #140404",
"A.	c #2F0606",
"B.	c #590B0C",
"C.	c #B51515",
"D.	c #100102",
"E.	c #120203",
"F.	c #990D0E",
"G.	c #B81010",
"H.	c #DA3232",
"I.	c #BF2A2A",
"J.	c #040101",
"K.	c #CD2D2D",
"L.	c #220707",
"M.	c #4D1212",
"N.	c #81191A",
"O.	c #7E1818",
"P.	c #2F0808",
"Q.	c #AE1D1D",
"R.	c #C92323",
"S.	c #9E1717",
"T.	c #120202",
"U.	c #1E0505",
"V.	c #310707",
"W.	c #590C0C",
"X.	c #BC1616",
"Y.	c #180303",
"Z.	c #410909",
"`.	c #350404",
" +	c #DB3232",
".+	c #370A0A",
"++	c #671616",
"@+	c #D73030",
"#+	c #7D1818",
"$+	c #390A0A",
"%+	c #450F0F",
"&+	c #5D0F0F",
"*+	c #D12424",
"=+	c #360808",
"-+	c #2A0404",
";+	c #5E0D0D",
">+	c #901313",
",+	c #1D0505",
"'+	c #170303",
")+	c #450909",
"!+	c #170202",
"~+	c #0A0000",
"{+	c #A40D0D",
"]+	c #D93131",
"^+	c #B32828",
"/+	c #280607",
"(+	c #7C1B1B",
"_+	c #310909",
":+	c #9E1F1F",
"<+	c #170404",
"[+	c #C42121",
"}+	c #C81F1F",
"|+	c #861111",
"1+	c #5D0C0C",
"2+	c #650E0E",
"3+	c #150202",
"4+	c #6E0C0D",
"5+	c #74090A",
"6+	c #DE3333",
"7+	c #701919",
"8+	c #30090A",
"9+	c #7B1B1B",
"0+	c #320909",
"a+	c #9D1F1F",
"b+	c #240606",
"c+	c #5B0F0F",
"d+	c #CB2122",
"e+	c #BC1D1D",
"f+	c #100202",
"g+	c #540B0C",
"h+	c #5C0C0C",
"i+	c #120101",
"j+	c #9E1111",
"k+	c #190202",
"l+	c #DA3333",
"m+	c #CB2D2D",
"n+	c #791C1C",
"o+	c #350B0B",
"p+	c #9C1F1F",
"q+	c #500E0F",
"r+	c #190404",
"s+	c #1D0404",
"t+	c #C32021",
"u+	c #C72021",
"v+	c #7C1212",
"w+	c #500A0A",
"x+	c #640F0F",
"y+	c #5B0C0C",
"z+	c #9B1111",
"A+	c #4B090A",
"B+	c #DE3434",
"C+	c #4E0F0F",
"D+	c #C22C2C",
"E+	c #531010",
"F+	c #460D0D",
"G+	c #010000",
"H+	c #AD1B1C",
"I+	c #C72122",
"J+	c #C6201F",
"K+	c #2F0707",
"L+	c #8D1414",
"M+	c #600E0F",
"N+	c #9A1111",
"O+	c #900F0F",
"P+	c #C52D2D",
"Q+	c #4C1313",
"R+	c #C42D2D",
"S+	c #4A0E0E",
"T+	c #0C0202",
"U+	c #651010",
"V+	c #CD2122",
"W+	c #CA2020",
"X+	c #6B0F10",
"Y+	c #640E0F",
"Z+	c #8F1415",
"`+	c #DB3434",
" @	c #992121",
".@	c #5F1516",
"+@	c #C12C2C",
"@@	c #0E0203",
"#@	c #0B0101",
"$@	c #D02324",
"%@	c #BD1E1E",
"&@	c #130202",
"*@	c #AB1919",
"=@	c #8E1415",
"-@	c #0E0102",
";@	c #DC3535",
">@	c #E53737",
",@	c #330909",
"'@	c #651717",
")@	c #420B0C",
"!@	c #941818",
"~@	c #CA2122",
"{@	c #8F1616",
"]@	c #440A0A",
"^@	c #AA1A1A",
"/@	c #230505",
"(@	c #CF2F2F",
"_@	c #992324",
":@	c #681717",
"<@	c #490E0E",
"[@	c #6F1414",
"}@	c #3E090A",
"|@	c #D12223",
"1@	c #5A0E0E",
"2@	c #A81919",
"3@	c #290606",
"4@	c #651515",
"5@	c #511312",
"6@	c #190505",
"7@	c #6E1415",
"8@	c #280808",
"9@	c #160303",
"0@	c #8B1516",
"a@	c #130203",
"b@	c #5B0E0E",
"c@	c #260606",
"d@	c #210404",
"e@	c #060101",
"f@	c #8E2120",
"g@	c #120304",
"h@	c #520C0C",
"i@	c #310606",
"j@	c #220606",
"k@	c #4D0707",
"l@	c #B32929",
"m@	c #400909",
"n@	c #350707",
"o@	c #300506",
"p@	c #B01010",
"q@	c #2E0909",
"r@	c #190506",
"s@	c #300A0A",
"t@	c #2D0808",
"u@	c #210405",
"v@	c #7C0A0B",
"w@	c #B91112",
"x@	c #270303",
"y@	c #1D0606",
"z@	c #2F0A0A",
"A@	c #4D0E0F",
"B@	c #A60F10",
"C@	c #BA1112",
"D@	c #5D0808",
"E@	c #641616",
"F@	c #4C0E0F",
"G@	c #570E0E",
"H@	c #8F0E0E",
"I@	c #2E0404",
"J@	c #A20F0F",
"K@	c #370C0C",
"L@	c #C62D2D",
"M@	c #480E0E",
"N@	c #400C0C",
"O@	c #3B0809",
"P@	c #AB1A1A",
"Q@	c #420606",
"R@	c #980E0E",
"S@	c #B71112",
"T@	c #B32727",
"U@	c #490E0F",
"V@	c #3B0A0A",
"W@	c #AE1A1A",
"X@	c #9C1111",
"Y@	c #C01313",
"Z@	c #390C0C",
"`@	c #340B0B",
" #	c #430C0D",
".#	c #6A0E0E",
"+#	c #7A0B0C",
"@#	c #8A0D0D",
"##	c #BA1213",
"$#	c #2B0909",
"%#	c #2F0A09",
"&#	c #C12021",
"*#	c #1D0202",
"=#	c #1F0203",
"-#	c #B71212",
";#	c #2F0B0B",
">#	c #0A0202",
",#	c #7E1B1B",
"'#	c #701415",
")#	c #270808",
"!#	c #6F1112",
"~#	c #CE2423",
"{#	c #400A0A",
"]#	c #5D0D0D",
"^#	c #650F0F",
"/#	c #450808",
"(#	c #911010",
"_#	c #BC1313",
":#	c #AA2727",
"<#	c #D62F2F",
"[#	c #661111",
"}#	c #BA2020",
"|#	c #9F1A1B",
"1#	c #610E0E",
"2#	c #340808",
"3#	c #2F0505",
"4#	c #BF1415",
"5#	c #D73434",
"6#	c #320A0B",
"7#	c #811C1C",
"8#	c #681313",
"9#	c #CD2424",
"0#	c #C11F20",
"a#	c #570C0C",
"b#	c #660E0E",
"c#	c #580C0C",
"d#	c #BF1717",
"e#	c #140202",
"f#	c #8F0F10",
"g#	c #BA1414",
"h#	c #DD3636",
"i#	c #BB2C2C",
"j#	c #050001",
"k#	c #180505",
"l#	c #4C1111",
"m#	c #541010",
"n#	c #3C0A0A",
"o#	c #230606",
"p#	c #CA2424",
"q#	c #8A1616",
"r#	c #5E0B0C",
"s#	c #5C0B0B",
"t#	c #8A1313",
"u#	c #340606",
"v#	c #C01516",
"w#	c #DF3535",
"x#	c #771A1A",
"y#	c #2A0A0A",
"z#	c #601212",
"A#	c #80191A",
"B#	c #350909",
"C#	c #8B1A1B",
"D#	c #97191A",
"E#	c #CE2123",
"F#	c #380909",
"G#	c #070101",
"H#	c #1F0303",
"I#	c #B21415",
"J#	c #BE1516",
"K#	c #D93434",
"L#	c #D23232",
"M#	c #280707",
"N#	c #0D0202",
"O#	c #210606",
"P#	c #681515",
"Q#	c #D72B2B",
"R#	c #841A1A",
"S#	c #7F1616",
"T#	c #3F0A0A",
"U#	c #CC2425",
"V#	c #A31919",
"W#	c #770D0D",
"X#	c #DB3333",
"Y#	c #BD2B2B",
"Z#	c #100304",
"`#	c #250607",
" $	c #110303",
".$	c #C72324",
"+$	c #CD2526",
"@$	c #C92020",
"#$	c #691111",
"$$	c #4A0908",
"%$	c #A12526",
"&$	c #A01E1E",
"*$	c #CB1F1F",
"=$	c #520B0B",
"-$	c #320707",
";$	c #C11819",
">$	c #BE1616",
",$	c #972222",
"'$	c #060001",
")$	c #8A1919",
"!$	c #CF2727",
"~$	c #C41F1F",
"{$	c #C21E1E",
"]$	c #611010",
"^$	c #4B0909",
"/$	c #B21718",
"($	c #DE3838",
"_$	c #D83232",
":$	c #A32525",
"<$	c #1E0606",
"[$	c #891919",
"}$	c #D22828",
"|$	c #CA1D1E",
"1$	c #981515",
"2$	c #3D0808",
"3$	c #300606",
"4$	c #340707",
"5$	c #801111",
"6$	c #C61A1A",
"7$	c #D93030",
"8$	c #BC2929",
"9$	c #611415",
"0$	c #380B0C",
"a$	c #A62020",
"b$	c #D22929",
"c$	c #C31D1E",
"d$	c #C51D1E",
"e$	c #C91C1C",
"f$	c #C31B1B",
"g$	c #C71B1B",
"h$	c #C92C2C",
"i$	c #831B1B",
"j$	c #751718",
"k$	c #731718",
"l$	c #A91D1D",
"m$	c #CF2929",
"n$	c #C21C1C",
"o$	c #D53030",
"p$	c #D52D2D",
"q$	c #D52C2C",
"r$	c #D42B2B",
"s$	c #D22A2A",
". + @ # $ # % & * = - ; > > , ' ) ! ~ ~ { { ] ^ / / / ( _ _ : < [ } | 1 1 2 3 4 5 6 7 8 9 0 0 a ",
". + @ # $ # % & * = - ; > > , ' ) ! ~ ~ { { ] ^ / / / ( _ _ : < [ } | 1 1 2 3 4 5 6 7 8 9 0 0 a ",
". + @ # $ # % & * = - ; > > , ' ) ! ~ ~ { { ] ^ / / / ( _ _ : < [ } | 1 1 2 3 4 5 6 7 8 9 0 0 a ",
". + @ # $ # % & * = - ; > b c ' ) ! ~ ~ { { ] ^ / / / ( _ _ : < [ } | 1 1 2 3 4 5 6 7 8 9 0 0 a ",
". + @ # $ # % & * = = d e c c f g ! ~ ~ { { ] ^ / / / ( _ _ : < [ } | 1 1 h 3 i 5 6 7 8 9 0 0 a ",
". + @ # $ # % & * = j k l m n o p q ~ ~ { { ] ^ / / / ( _ _ : < [ } | 1 1 2 r s t u 7 8 9 0 0 a ",
". + @ # $ # % & * v w x y y y y z A B ~ { { ] ^ / / / ( _ _ : < [ } | 1 C D E F G H I J 9 0 0 a ",
". + @ # $ # % & K L M y y y y y y N O B { { ] ^ / / / ( _ _ : < [ } P Q R S T U V W X Y 9 0 0 a ",
". + @ # $ # % & Z ` y y y y y y y y  ...+.{ ] ^ / / / ( _ _ : < [ } @.#.$.y y y y y y %.&.0 0 a ",
". + @ # $ # % *.=.y y y y y y y y y y -.;.{ ] ^ / / / ( _ _ : < [ >.,.'.y y y y y y y y ).!.0 a ",
". + @ # $ # ~.{.y $.].^./.(.y y y y y y _.:.<.^ / / / ( _ _ : < [ [.N y y y y y y y y y }.|.0 a ",
". + @ # $ # 1.2.'.3.4.5.6.7.8.9.y y y y 0.a.b.^ / / / ( _ _ : < >.c.y y d.e.f.y y y y y y g.h.a ",
". + @ # # i.j.k.l.m.n.o.p.q.r.s.t.y y y y u.v.^ / / / ( _ _ : w.x.y y.z.A.B.C.D.E.y y y y y F.G.",
". + @ # H.I.J.K.L.M.p.o.p.> N.O.P.y y y y $.Q.R./ / / ( _ _ : S.V T.,.U.V.W.X.Y.Z.y y y y y `.a ",
". + @ #  +.+++@+l.M.p.o.p.> N.#+$+%+y y y y &+*+/ / / ( _ _ w.=+-+;+>+,+V.W.3 '+)+!+'.y y y ~+{+",
". + @ ]+^+/+(+& l.M.p.o.p.> N.#+_+:+<+y y y y [+/ / / ( _ }+|+y 1+2+>+,+V.W.3 '+)+3+4+y y y y 5+",
". + @ 6+7+8+9+& l.M.p.o.p.> N.#+0+a+b+y y y y c+d+/ / ( _ e+f+g+h+2+>+,+V.W.3 '+)+i+j+9.y y y k+",
". + l+m+n+o+9+& l.M.p.o.p.> N.#+0+p+q+r+y y y s+t+u+/ ( ( v+w+x+y+2+>+,+V.W.3 '+)+i+z+A+y y y y ",
". + B+C+D+o+9+& l.M.p.o.p.> N.#+0+p+E+F+G+y y 9.H+I+/ J+}+K+L+M+y+2+>+,+V.W.3 '+)+i+N+O+y y y y ",
". + P+Q+R+o+9+& l.M.p.o.p.> N.#+0+p+E+S+T+y y y U+V+/ W+X+Y+Z+M+y+2+>+,+V.W.3 '+)+i+N+O+y y y y ",
". `+ @.@+@o+9+& l.M.p.o.p.> N.#+0+p+E+S+@@y y y #@$@/ %@&@*@=@M+y+2+>+,+V.W.3 '+)+i+N+O+y -@y y ",
";@>@,@'@+@o+9+& l.M.p.o.p.> N.#+0+p+E+S+)@y y y y !@~@{@]@^@=@M+y+2+>+,+V.W.3 '+)+i+N+O+y /@y y ",
"(@_@z.:@+@o+9+& l.M.p.o.p.> N.#+0+p+E+<@[@r+y y y }@|@y.1@2@=@M+y+2+>+,+V.W.3 '+)+i+N+O+y 3@V y ",
"4@5@6@:@+@o+9+& l.M.p.o.p.> N.#+0+p+E+<@7@8@y y y 9@0@a@b@2@=@M+y+2+>+,+V.W.3 '+)+i+N+O+y c@d@y ",
"e@f@g@:@+@o+9+& l.M.p.o.p.> N.#+0+p+E+<@7@8@y y y G+h@i@b@2@=@M+y+2+>+,+V.W.3 '+)+i+N+O+y j@k@y ",
"y l@t.:@+@o+9+& l.M.p.o.p.> N.#+0+p+E+<@7@z }.y y y m@n@b@2@=@M+y+2+>+,+V.W.3 '+)+i+N+O+y o@p@` ",
"y q@r@:@+@o+9+& l.M.p.o.p.> N.#+0+p+E+<@7@s@t@y y y U u@b@2@=@M+y+2+>+,+V.W.3 '+)+i+N+O+y v@w@x@",
"y y y@:@+@o+9+& l.M.p.o.p.> N.#+0+p+E+<@7@z@A@y y y y &@b@2@=@M+y+2+>+,+V.W.3 '+)+i+N+O+G+B@C@D@",
"y y M E@+@o+9+& l.M.p.o.p.> N.#+0+p+E+<@7@z@F@W y y y $.G@2@=@M+y+2+>+,+V.W.3 '+)+i+N+H@I@!.0 J@",
"y y G+K@L@o+9+& l.M.p.o.p.> N.#+0+p+E+<@7@z@M@N@9.y y y O@P@=@M+y+2+>+,+V.W.3 '+)+i+z+Q@R@w@S@G.",
"y y y y T@o+9+& l.M.p.o.p.> N.#+0+p+E+<@7@z@U@V@a@y y y y W@=@M+y+2+>+,+V.W.3 '+)+i+X@Q@Y@0 0 a ",
"y y y y Z@`@9+& l.M.p.o.p.> N.#+0+p+E+<@7@s@ #c+c+y y y y .#Z+M+y+2+>+,+V.W.3 '+)+3++#@###0 0 a ",
"y y y y y $#9+& l.M.p.o.p.> N.#+0+p+E+<@7@%#'+^ &#y y y y &@Z+M+y+2+>+,+V.W.3 '+)+*#=#-#9 0 0 a ",
";#y y y y >#,#& l.M.p.o.p.> N.#+0+p+E+<@'#)#!#~#|@{#y y y y ]#^#y+2+>+,+V.W.3 '+/#9.(#_#9 0 0 a ",
":#V y y y y y@<#l.M.p.o.p.> N.#+0+p+E+<@[#3@}#^ / |#V y y y y 1#h+2+>+,+V.W.3 Y.2#3#4#8 9 0 0 a ",
"5#6#y y y y y 7#8@M.p.o.p.> N.#+0+p+E+S+>#8#9#^ / 0#d@y y y y $.a#b#>+,+V.c#d#e#9.f#g#8 9 0 0 a ",
"h#i#y y y y y j#k#l#p.o.p.> N.#+0+p+m#n#o#+.p#^ / ~@q#y y y y y U.r#>+,+V.s#t#y u#v#7 8 9 0 0 a ",
". w#x#y y y y y y y#z#o+n.> A##+B#C#,+W D#+.] ^ / / E#F#y y y y y G#1+'+H#i@W #@I#J#7 8 9 0 0 a ",
". K#L#M#y y y y y y N#O#P#Q#R#S#/+6@y T#U#{ ] ^ / / / V#$.y y y y y y V y y G+W#J#6 7 8 9 0 0 a ",
". + X#Y#Z#y y y y y y V T+$+`# $U y ,+.$+${ ] ^ / / / @$#$y y y y y y y y y $$J#5 6 7 8 9 0 0 a ",
". + @  +%$$.y y y y y y y y y y y G#&$~ { { ] ^ / / / ( *$=$V y y y y y G+-$;$>$5 6 7 8 9 0 0 a ",
". + @ #  +,$'$y y y y y y y y y U )$!$~ { { ] ^ / / / ( ~${$]$9.y y y V ^$/$>$4 5 6 7 8 9 0 0 a ",
"($+ @ # _$~.:$<$y y y y y y y t.[$}$~ ~ { { ] ^ / / / ( _ ~$|$1$2$3$4$5$6$h 3 4 5 6 7 8 9 0 0 a ",
". + @ # $ # 7$8$9$e@y y y V 0$a$b$! ~ ~ { { ] ^ / / / ( _ _ c$d$e$f$g$@.1 2 3 4 5 6 7 8 9 0 0 a ",
". + @ # $ # % @+v h$i$j$k$l$c b$m$! ~ ~ { { ] ^ / / / ( _ _ : < n$} P 1 1 2 3 4 5 6 7 8 9 0 0 a ",
". + @ # $ # % o$* * p$q$r$s$, ' ) ! ~ ~ { { ] ^ / / / ( _ _ : < [ } | 1 1 2 3 4 5 6 7 8 9 0 0 a ",
". + @ # $ # % & * - = q.> b , ' ) ! ~ ~ { { ] ^ / / / ( _ _ : < [ } | 1 1 2 3 4 5 6 7 8 9 0 0 a ",
". + @ # $ # % & * = - ; > > , ' ) ! ~ ~ { { ] ^ / / / ( _ _ : < [ } | 1 1 2 3 4 5 6 7 8 9 0 0 a "};
